<svg width="171" height="39" viewBox="0 0 171 39" fill="none" xmlns="http://www.w3.org/2000/svg">
<g clip-path="url(#clip0_2972_210245)">
<path d="M153.353 24.1364L157.324 0H163.461L159.472 24.1364H153.353ZM145.802 15.1193L146.842 9.01705H170.978L169.938 15.1193H145.802Z" fill="#1C6EA4"/>
<path d="M144.201 39L147.04 22H151.427L148.576 39H144.201ZM138.802 32.649L139.545 28.351H156.802L156.058 32.649H138.802Z" fill="#658864"/>
<path d="M133.897 8.81813L132.994 14.2727H117.21L118.13 8.81813H133.897ZM122.732 2.54541H129.994L125.937 26.9545C125.823 27.625 125.84 28.1476 125.988 28.5226C126.136 28.8864 126.38 29.142 126.721 29.2898C127.073 29.4375 127.494 29.5114 127.982 29.5114C128.323 29.5114 128.67 29.483 129.022 29.4261C129.374 29.358 129.642 29.3067 129.823 29.2726L130.096 34.6761C129.687 34.8011 129.136 34.9375 128.443 35.0852C127.761 35.233 126.954 35.3239 126.022 35.358C124.249 35.4261 122.749 35.1931 121.522 34.659C120.295 34.1136 119.414 33.2784 118.88 32.1534C118.346 31.0284 118.232 29.6136 118.539 27.909L122.732 2.54541Z" fill="#1A1A1A"/>
<path d="M115.444 16.2841L108.847 16.6932C108.813 16.1136 108.654 15.5966 108.37 15.142C108.097 14.6761 107.694 14.3068 107.16 14.0341C106.637 13.7614 105.978 13.625 105.182 13.625C103.989 13.625 102.927 13.8977 101.995 14.4432C101.063 14.9886 100.535 15.6875 100.41 16.5398C100.307 17.0852 100.449 17.5454 100.836 17.9204C101.222 18.2954 102 18.6136 103.171 18.875L107.773 19.8295C110.228 20.3523 112 21.2216 113.091 22.4375C114.194 23.6534 114.586 25.2443 114.268 27.2102C113.983 28.8807 113.25 30.3409 112.069 31.5909C110.887 32.8295 109.387 33.7954 107.569 34.4886C105.75 35.1704 103.733 35.5114 101.518 35.5114C97.9607 35.5114 95.2562 34.7841 93.4039 33.3295C91.5516 31.875 90.6596 29.9034 90.7278 27.4148L97.8187 27.0398C97.8755 28.1079 98.2505 28.9148 98.9437 29.4602C99.6368 29.9943 100.586 30.267 101.79 30.2784C103.143 30.3011 104.29 30.0227 105.233 29.4432C106.188 28.8523 106.728 28.1364 106.853 27.2954C106.944 26.7045 106.773 26.2273 106.341 25.8636C105.921 25.5 105.148 25.1989 104.023 24.9602L99.6596 24.0568C97.1823 23.5454 95.4039 22.6307 94.3243 21.3125C93.2448 19.9943 92.8755 18.3182 93.2164 16.2841C93.4891 14.6591 94.1653 13.267 95.2448 12.1079C96.3357 10.9375 97.7391 10.0398 99.455 9.41479C101.182 8.78979 103.131 8.47729 105.302 8.47729C108.699 8.47729 111.256 9.17617 112.972 10.5739C114.699 11.9716 115.523 13.875 115.444 16.2841Z" fill="#1A1A1A"/>
<path d="M75.6235 35.5114C72.9417 35.5114 70.7201 34.9659 68.9587 33.875C67.1974 32.7727 65.9587 31.2159 65.2428 29.2045C64.5383 27.1818 64.419 24.7898 64.8849 22.0284C65.3394 19.3352 66.2542 16.9716 67.6292 14.9375C69.0156 12.9034 70.7542 11.3182 72.8451 10.1818C74.936 9.04549 77.2656 8.47729 79.8337 8.47729C81.561 8.47729 83.1235 8.75571 84.5212 9.31253C85.9303 9.85799 87.1008 10.6875 88.0326 11.8011C88.9644 12.9034 89.6008 14.2841 89.9417 15.9432C90.294 17.6023 90.2883 19.5454 89.9247 21.7727L89.6008 23.767H67.5099L68.2087 19.267H83.4815C83.6519 18.2216 83.5837 17.2954 83.2769 16.4886C82.9701 15.6818 82.4587 15.0511 81.7428 14.5966C81.0269 14.1307 80.1462 13.8977 79.1008 13.8977C78.0326 13.8977 77.0326 14.1591 76.1008 14.6818C75.169 15.2045 74.3849 15.892 73.7485 16.7443C73.1235 17.5852 72.7201 18.5 72.5383 19.4886L71.7372 23.9545C71.5099 25.3295 71.5553 26.4716 71.8735 27.3807C72.2031 28.2898 72.7712 28.9716 73.5781 29.4261C74.3849 29.8693 75.4076 30.0909 76.6462 30.0909C77.4531 30.0909 78.2087 29.9773 78.9133 29.75C79.6292 29.5227 80.2656 29.1875 80.8224 28.7443C81.3792 28.2898 81.8337 27.7273 82.186 27.0568L88.8167 27.5C88.2031 29.1136 87.2712 30.5227 86.0212 31.7273C84.7712 32.9204 83.2656 33.8523 81.5042 34.5227C79.7542 35.1818 77.794 35.5114 75.6235 35.5114Z" fill="#1A1A1A"/>
<path d="M67.1713 8.81812L53.6542 34.9999H45.4724L40.6826 8.81812H48.0803L50.3985 27.551H50.6713L59.211 8.81812H67.1713Z" fill="#1A1A1A"/>
<path d="M21.215 19.8636L18.6923 35H11.448L15.8116 8.8182H22.715L21.965 13.4375H22.2548C23.0844 11.9034 24.2548 10.6932 25.7662 9.80685C27.2889 8.92049 29.0219 8.47729 30.965 8.47729C32.7832 8.47729 34.3003 8.87503 35.5162 9.67049C36.7435 10.4659 37.6071 11.5966 38.1071 13.0625C38.6185 14.5284 38.7037 16.2841 38.3628 18.3295L35.5673 35H28.306L30.8798 19.625C31.1412 18.0227 30.9366 16.7727 30.2662 15.875C29.6071 14.9659 28.5446 14.5114 27.0787 14.5114C26.1014 14.5114 25.2037 14.7216 24.3855 15.142C23.5673 15.5625 22.8798 16.1761 22.323 16.9829C21.7775 17.7784 21.4082 18.7386 21.215 19.8636Z" fill="#1A1A1A"/>
<path d="M13.1761 0.0908203L7.38068 34.9999H0L5.79546 0.0908203H13.1761Z" fill="#1A1A1A"/>
</g>
<defs>
<clipPath id="clip0_2972_210245">
<rect width="171" height="39" fill="white"/>
</clipPath>
</defs>
</svg>
